<svg width="28" height="28" viewBox="0 0 28 28" fill="none" xmlns="http://www.w3.org/2000/svg">
<path d="M11.3214 5.19645L3.44641 13.0715C3.32405 13.1934 3.22696 13.3383 3.16072 13.4978C3.09447 13.6574 3.06037 13.8284 3.06037 14.0011C3.06037 14.1739 3.09447 14.3449 3.16072 14.5045C3.22696 14.664 3.32405 14.8089 3.44641 14.9308L11.3214 22.8058C11.568 23.0524 11.9024 23.1909 12.2511 23.1909C12.5998 23.1909 12.9342 23.0524 13.1808 22.8058C13.4274 22.5593 13.5659 22.2248 13.5659 21.8761C13.5659 21.5274 13.4274 21.193 13.1808 20.9465L7.54688 15.3125L23.625 15.3125C23.9731 15.3125 24.3069 15.1743 24.5531 14.9281C24.7992 14.682 24.9375 14.3481 24.9375 14C24.9375 13.652 24.7992 13.3181 24.5531 13.072C24.3069 12.8258 23.9731 12.6875 23.625 12.6875L7.54688 12.6875L13.1819 7.05364C13.4284 6.80707 13.567 6.47266 13.567 6.12395C13.567 5.77526 13.4284 5.44084 13.1819 5.19427C12.9353 4.9477 12.6009 4.80918 12.2522 4.80918C11.9035 4.80918 11.5691 4.9477 11.3225 5.19427L11.3214 5.19645Z" fill="black"/>
</svg>
