<svg width="28" height="28" viewBox="0 0 28 28" fill="none" xmlns="http://www.w3.org/2000/svg">
<path d="M16.6786 5.19645L24.5536 13.0715C24.676 13.1934 24.773 13.3383 24.8393 13.4978C24.9055 13.6574 24.9396 13.8284 24.9396 14.0011C24.9396 14.1739 24.9055 14.3449 24.8393 14.5045C24.773 14.664 24.676 14.8089 24.5536 14.9308L16.6786 22.8058C16.432 23.0524 16.0976 23.1909 15.7489 23.1909C15.4002 23.1909 15.0658 23.0524 14.8192 22.8058C14.5726 22.5593 14.4341 22.2248 14.4341 21.8761C14.4341 21.5274 14.5726 21.193 14.8192 20.9465L20.4531 15.3125L4.375 15.3125C4.0269 15.3125 3.69306 15.1743 3.44692 14.9281C3.20078 14.682 3.0625 14.3481 3.0625 14C3.0625 13.652 3.20078 13.3181 3.44692 13.072C3.69306 12.8258 4.0269 12.6875 4.375 12.6875L20.4531 12.6875L14.8181 7.05364C14.5716 6.80707 14.433 6.47266 14.433 6.12395C14.433 5.77526 14.5716 5.44084 14.8181 5.19427C15.0647 4.9477 15.3991 4.80918 15.7478 4.80918C16.0965 4.80918 16.4309 4.9477 16.6775 5.19427L16.6786 5.19645Z" fill="black"/>
</svg>
