<svg width="28" height="28" viewBox="0 0 28 28" fill="none" xmlns="http://www.w3.org/2000/svg">
<path d="M10.9375 23.625C10.9375 24.0576 10.8092 24.4806 10.5688 24.8403C10.3285 25.2 9.98683 25.4804 9.58712 25.646C9.18741 25.8116 8.74757 25.8549 8.32324 25.7705C7.89891 25.6861 7.50913 25.4777 7.2032 25.1718C6.89728 24.8659 6.68894 24.4761 6.60453 24.0518C6.52013 23.6274 6.56345 23.1876 6.72901 22.7879C6.89458 22.3882 7.17496 22.0465 7.53469 21.8062C7.89442 21.5658 8.31735 21.4375 8.75 21.4375C9.33016 21.4375 9.88656 21.668 10.2968 22.0782C10.707 22.4884 10.9375 23.0448 10.9375 23.625ZM20.125 21.4375C19.6924 21.4375 19.2694 21.5658 18.9097 21.8062C18.55 22.0465 18.2696 22.3882 18.104 22.7879C17.9384 23.1876 17.8951 23.6274 17.9795 24.0518C18.0639 24.4761 18.2723 24.8659 18.5782 25.1718C18.8841 25.4777 19.2739 25.6861 19.6982 25.7705C20.1226 25.8549 20.5624 25.8116 20.9621 25.646C21.3618 25.4804 21.7035 25.2 21.9438 24.8403C22.1842 24.4806 22.3125 24.0576 22.3125 23.625C22.3125 23.0448 22.082 22.4884 21.6718 22.0782C21.2616 21.668 20.7052 21.4375 20.125 21.4375ZM25.7545 8.26109L22.7697 17.9627C22.5791 18.5901 22.1913 19.1393 21.6639 19.5288C21.1364 19.9184 20.4974 20.1274 19.8417 20.125H9.07047C8.40537 20.1228 7.75887 19.9052 7.22785 19.5047C6.69684 19.1043 6.30989 18.5425 6.125 17.9036L2.38547 4.8125H1.3125C0.964403 4.8125 0.630564 4.67422 0.384422 4.42808C0.138281 4.18194 0 3.8481 0 3.5C0 3.1519 0.138281 2.81806 0.384422 2.57192C0.630564 2.32578 0.964403 2.1875 1.3125 2.1875H2.71469C3.18975 2.18897 3.65153 2.34443 4.03075 2.63058C4.40997 2.91672 4.68619 3.31811 4.81797 3.77453L5.61531 6.5625H24.5C24.7054 6.56248 24.908 6.61068 25.0913 6.70321C25.2747 6.79574 25.4338 6.93002 25.5559 7.09524C25.6779 7.26047 25.7594 7.45204 25.794 7.65453C25.8285 7.85701 25.815 8.06477 25.7545 8.26109ZM22.7227 9.1875H6.36453L8.64937 17.1828C8.67554 17.2743 8.73079 17.3547 8.80678 17.412C8.88277 17.4692 8.97534 17.5001 9.07047 17.5H19.8417C19.9354 17.5002 20.0266 17.4703 20.102 17.4148C20.1774 17.3593 20.233 17.281 20.2606 17.1916L22.7227 9.1875Z" fill="black"/>
</svg>
