<svg width="24" height="22" viewBox="0 0 24 22" fill="none" xmlns="http://www.w3.org/2000/svg">
<path d="M21.7959 18.5204L17.3437 14.4375C18.6787 12.8429 19.3019 10.8426 19.087 8.84223C18.8722 6.84191 17.8353 4.9914 16.1867 3.66609C14.5382 2.34078 12.4014 1.63991 10.2098 1.70566C8.01829 1.7714 5.93607 2.59884 4.38558 4.02013C2.83509 5.44141 1.93243 7.35011 1.8607 9.35903C1.78898 11.368 2.55356 13.3267 3.99936 14.8378C5.44515 16.349 7.46389 17.2995 9.64606 17.4964C11.8282 17.6934 14.0104 17.1221 15.75 15.8984L20.2059 19.9839C20.3106 20.0798 20.4348 20.1559 20.5715 20.2078C20.7083 20.2598 20.8548 20.2865 21.0028 20.2865C21.1508 20.2865 21.2973 20.2598 21.4341 20.2078C21.5708 20.1559 21.695 20.0798 21.7997 19.9839C21.9043 19.888 21.9873 19.7741 22.044 19.6488C22.1006 19.5234 22.1298 19.3891 22.1298 19.2534C22.1298 19.1178 22.1006 18.9834 22.044 18.8581C21.9873 18.7328 21.9043 18.6189 21.7997 18.523L21.7959 18.5204ZM4.12499 9.625C4.12499 8.46922 4.49888 7.33939 5.19938 6.37839C5.89987 5.41739 6.89551 4.66838 8.06039 4.22608C9.22527 3.78378 10.5071 3.66806 11.7437 3.89354C12.9803 4.11902 14.1162 4.67559 15.0078 5.49285C15.8994 6.31011 16.5065 7.35137 16.7525 8.48494C16.9985 9.61852 16.8722 10.7935 16.3897 11.8613C15.9072 12.9291 15.0901 13.8418 14.0418 14.4839C12.9934 15.126 11.7608 15.4688 10.5 15.4688C8.80977 15.4672 7.18927 14.851 5.99411 13.7554C4.79894 12.6598 4.12673 11.1744 4.12499 9.625Z" fill="black" fill-opacity="0.4"/>
</svg>
