<svg width="194" height="32" viewBox="0 0 194 32" fill="none" xmlns="http://www.w3.org/2000/svg">
<path fill-rule="evenodd" clip-rule="evenodd" d="M0 0.499529L2.93217 3.80626V28.0084L0.758974 31.1751L14.0684 31.1956L11.6695 28.2816L11.4204 19.5656L24.2536 19.6353C28.1434 18.3403 32.1421 15.5792 32.3342 9.99739C32.2728 4.5881 28.9703 1.11864 25.136 0.428384L0 0.499529ZM10.9449 2.04731V17.5955L20.7911 17.6667C23.0315 15.86 24.7298 14.4765 24.6619 10.1389C24.6298 6.6021 23.8832 3.51789 20.5873 2.04807L10.9449 2.04731ZM38.4936 0.32318L41.4258 3.63067V27.8328L39.2526 31.0011L52.5613 31.02L50.1624 28.1061L49.9133 19.39H49.9666L63.7165 31.1184L75.1274 31.0253L64.7129 22.0171H56.0187L52.9543 19.4067L62.7465 19.4597C66.6363 18.1647 70.6342 15.4036 70.8271 9.82179C70.7665 4.41326 67.4639 0.94305 63.6289 0.253549L38.4936 0.32318ZM49.4378 1.87096V17.4192L59.284 17.4903C61.5251 15.6837 63.2227 14.3001 63.1548 9.96181C63.1227 6.42576 62.3761 3.34079 59.0802 1.87096H49.4378ZM86.1132 0.288364H97.5891L112.528 28.0084C113.174 30.1488 115.108 29.8847 116.398 30.8232H101.935L104.108 30.1435L103.972 28.0796L100.237 22.0988L87.5391 22.17L84.8232 27.9395C84.7326 28.5957 84.0306 29.0938 84.5514 29.9089L85.5705 30.8936L79.3234 30.7528L82.04 29.9089L92.2924 8.30958V6.83143L87.9606 1.05279L86.1132 0.288364ZM88.3419 20.1953L93.616 10.2101L99.1071 20.1393L88.3419 20.1953ZM163.715 0.348913H175.19L190.129 28.069C190.776 30.2094 192.709 29.9452 194 30.8837H179.536L181.709 30.2026L181.573 28.1386L177.839 22.1594L165.141 22.2305L162.425 27.9986C162.333 28.6563 161.632 29.1543 162.152 29.9694L163.171 30.9541L156.925 30.8134L159.642 29.9694L169.894 8.37013V6.89123L165.562 1.11334L163.715 0.348913ZM165.944 20.2566L171.218 10.2714L176.709 20.1991L165.944 20.2566ZM120.367 0L140.81 0.112772C147.394 1.6545 151.582 5.67646 152.881 12.6926L152.826 18.1647C151.626 24.4164 147.693 28.7297 140.756 30.9133L120.258 30.9708L120.255 30.3085C123.372 30.0731 123.621 29.7174 123.629 27.8676V2.93284C123.594 1.56519 123.32 0.713721 120.312 0.61987L120.367 0ZM131.988 2.13359L131.968 29.1112C134.664 29.1203 137.003 29.373 138.325 28.6987C141.319 27.331 142.71 25.2307 142.837 23.2576L142.765 7.32793C142.766 4.77958 140 2.98052 138.404 2.51202C137.262 2.08894 134.983 2.07153 131.988 2.13359Z" fill="white" stroke="white" stroke-width="1.02419" stroke-miterlimit="2.613"/>
</svg>
