<svg width="156" height="37" viewBox="0 0 156 37" fill="none" xmlns="http://www.w3.org/2000/svg">
<g clip-path="url(#clip0_234_467)">
<path d="M141.312 11.4361L141.021 11.5282C139.887 9.18474 138.268 7.31921 136.162 5.93163C134.089 4.54403 131.482 3.85022 128.34 3.85022C126.591 3.85022 124.923 4.20481 123.336 4.91399C121.749 5.59242 120.356 6.56374 119.158 7.82795C117.992 9.06135 117.053 10.5569 116.34 12.3145C115.627 14.0721 115.271 16.0147 115.271 18.1424C115.271 20.27 115.627 22.2126 116.34 23.9702C117.053 25.7278 117.992 27.2387 119.158 28.503C120.356 29.7364 121.749 30.6923 123.336 31.3707C124.923 32.049 126.591 32.3882 128.34 32.3882C131.45 32.3882 133.976 31.9257 135.919 31.0006C137.895 30.0448 139.563 28.5955 140.924 26.6529L141.215 26.7451L141.118 29.7053C140.373 30.4453 139.515 31.1083 138.543 31.6941C137.572 32.2492 136.519 32.7271 135.385 33.128C134.284 33.498 133.134 33.7755 131.936 33.9605C130.738 34.1766 129.539 34.2846 128.341 34.2846C125.847 34.2846 123.466 33.8991 121.199 33.1282C118.932 32.3573 116.94 31.2781 115.223 29.8905C113.506 28.4721 112.146 26.7762 111.142 24.8027C110.138 22.7985 109.636 20.5783 109.636 18.1423C109.636 15.7063 110.138 13.5016 111.142 11.5282C112.146 9.52386 113.506 7.8125 115.223 6.39412C116.94 4.97568 118.932 3.89644 121.199 3.15639C123.466 2.38549 125.847 2.00004 128.341 2.00004C129.539 2.00004 130.738 2.09255 131.936 2.27756C133.134 2.46257 134.284 2.75551 135.385 3.15639C136.519 3.52642 137.572 4.00437 138.543 4.59027C139.515 5.1453 140.373 5.79283 141.118 6.53287L141.312 11.4361ZM34.252 20.2704C33.8959 20.4244 33.5558 20.6249 33.2317 20.872C32.9076 21.1185 32.7456 21.4577 32.7456 21.8896V27.5786C31.1909 29.7063 29.199 31.356 26.7698 32.5277C24.3406 33.6995 21.6523 34.2854 18.7048 34.2854C16.2108 34.2854 13.8302 33.8999 11.563 33.129C9.29573 32.3581 7.30378 31.2789 5.58713 29.8913C3.87051 28.4729 2.51014 26.777 1.50605 24.8035C0.502017 22.7993 0 20.5791 0 18.1431C0 15.7071 0.502017 13.5024 1.50605 11.529C2.51014 9.52462 3.87051 7.81326 5.58713 6.39488C7.30378 4.97644 9.29573 3.89721 11.563 3.15719C13.8302 2.38626 16.2108 2.0008 18.7048 2.0008C19.9032 2.0008 21.1016 2.0933 22.3001 2.27831C23.4984 2.46332 24.6483 2.75627 25.7495 3.15715C26.8831 3.52717 27.9358 4.00513 28.9075 4.59102C29.8791 5.14605 30.7375 5.79359 31.4825 6.53363L31.6771 11.4364L31.3856 11.5286C30.252 9.18508 28.6325 7.31953 26.5272 5.93195C24.4543 4.54435 21.8469 3.85054 18.7052 3.85054C16.9561 3.85054 15.2881 4.20515 13.7011 4.91435C12.114 5.59275 10.7212 6.56406 9.52279 7.82827C8.35675 9.0617 7.41748 10.5572 6.70498 12.3148C5.99236 14.0724 5.63605 16.0151 5.63605 18.1427C5.63605 20.2395 5.97615 22.1667 6.65635 23.9243C7.36894 25.6819 8.30824 27.1928 9.47425 28.4571C10.6726 29.6905 12.0654 30.6618 13.6524 31.371C15.2395 32.0494 16.9238 32.3886 18.7052 32.3886C22.0737 32.3886 24.9563 31.7719 27.3531 30.5385V21.8892C27.3531 21.4577 27.1751 21.1185 26.819 20.8716C26.4949 20.6251 26.171 20.4246 25.8473 20.27L25.8917 20.039C26.0534 20.0672 26.345 20.098 26.7662 20.1312C27.1875 20.1594 27.6248 20.1902 28.078 20.2234H32.2565C32.6451 20.1952 33.0176 20.1645 33.3739 20.1312C33.73 20.103 34.0052 20.0723 34.1996 20.039L34.252 20.2704ZM69.442 2.97178C69.1179 3.12577 68.794 3.32629 68.4703 3.57335C68.1462 3.81984 67.9682 4.28237 67.9362 4.96092C67.9066 5.70097 67.8743 6.64145 67.8393 7.78237C67.8393 8.89246 67.8245 10.1567 67.7949 11.575C67.7949 12.9935 67.7801 14.5353 67.7505 16.2004V21.3808C67.7208 23.385 67.4616 25.0964 66.9728 26.5148C66.487 27.9332 65.8392 29.1203 65.0295 30.0762C64.2522 31.0322 63.3777 31.7876 62.406 32.3427C61.4666 32.8977 60.5273 33.314 59.5881 33.5915C58.6811 33.9 57.8228 34.085 57.0132 34.1465C56.2034 34.239 55.5718 34.2853 55.1184 34.2853C53.2722 34.2853 51.4907 34.054 49.7741 33.5915C48.0574 33.16 46.5513 32.4508 45.2558 31.4638C43.9602 30.4771 42.9238 29.1974 42.1465 27.6249C41.3691 26.0523 40.9804 24.1405 40.9804 21.8895V16.663V11.8526C40.9804 10.3725 40.9656 9.04655 40.936 7.87484C40.936 6.67224 40.9212 5.70093 40.8915 4.96088C40.8619 4.28249 40.6839 3.81996 40.3574 3.57331C40.0333 3.32681 39.7094 3.12629 39.3857 2.97174L39.4302 2.74076C39.5919 2.76896 39.8512 2.79969 40.2078 2.83295C40.5965 2.86115 40.9852 2.89188 41.3739 2.92513C41.7951 2.92513 42.2 2.93923 42.5885 2.96743H44.3375C44.7262 2.93923 45.131 2.92513 45.5521 2.92513C45.9733 2.89693 46.362 2.8662 46.7181 2.83295C47.1067 2.80474 47.3819 2.77402 47.5437 2.74076L47.5881 2.97174C47.232 3.12573 46.892 3.32625 46.5679 3.57331C46.2764 3.8198 46.1143 4.28233 46.0817 4.96088C46.0521 5.70093 46.0198 6.67224 45.9849 7.87484V21.8895C45.9849 25.2505 46.8108 27.7327 48.4626 29.3362C50.1145 30.9396 52.5599 31.7413 55.7989 31.7413C56.7381 31.7413 57.807 31.6333 59.0054 31.4173C60.2039 31.1708 61.3213 30.6774 62.3577 29.9372C63.4266 29.1971 64.3173 28.1488 65.0299 26.792C65.7748 25.4352 66.1473 23.6314 66.1473 21.3804C66.1473 18.9444 66.1325 16.8631 66.1029 15.1363C66.1029 13.3787 66.088 11.8832 66.0584 10.6498C66.0584 9.38552 66.0436 8.30628 66.014 7.41203C65.9844 6.51784 65.9521 5.70071 65.9171 4.96065C65.8874 4.28225 65.7094 3.81972 65.3829 3.57307C65.0588 3.32657 64.735 3.12604 64.4113 2.97146L64.4557 2.74052C64.8118 2.80198 65.2167 2.86374 65.6703 2.92581C66.1235 2.95401 66.5446 2.96811 66.9335 2.96811C67.2896 2.96811 67.6945 2.95401 68.1481 2.92581C68.6339 2.86435 69.055 2.80259 69.4113 2.74052L69.442 2.97178ZM104.696 11.4361L104.405 11.5282C103.271 9.18474 101.652 7.31921 99.5462 5.93163C97.4733 4.54403 94.8659 3.85022 91.7242 3.85022C89.9752 3.85022 88.3071 4.20481 86.72 4.91399C85.1329 5.59242 83.7402 6.56374 82.5418 7.82795C81.3758 9.06135 80.4365 10.5569 79.7239 12.3145C79.0114 14.0721 78.6551 16.0148 78.6551 18.1424C78.6551 20.27 79.0114 22.2126 79.7239 23.9702C80.4366 25.7278 81.3759 27.2387 82.5418 28.503C83.7402 29.7364 85.1329 30.6923 86.72 31.3707C88.3071 32.049 89.9752 32.3882 91.7243 32.3882C94.8336 32.3882 97.36 31.9257 99.3034 31.0006C101.279 30.0448 102.947 28.5955 104.307 26.6529L104.599 26.7451L104.502 29.7053C103.757 30.4453 102.899 31.1083 101.927 31.6941C100.955 32.2491 99.9027 32.7271 98.7691 33.128C97.6679 33.498 96.5181 33.7755 95.3196 33.9605C94.1212 34.1765 92.9228 34.2846 91.7245 34.2846C89.2304 34.2846 86.8498 33.8991 84.5826 33.1282C82.3153 32.3573 80.3234 31.2781 78.6068 29.8905C76.8901 28.4721 75.5297 26.7762 74.5257 24.8027C73.5216 22.7984 73.0196 20.5783 73.0196 18.1423C73.0196 15.7063 73.5216 13.5016 74.5257 11.5282C75.5297 9.52382 76.8901 7.81246 78.6068 6.39408C80.3234 4.97564 82.3153 3.8964 84.5826 3.15635C86.8499 2.38545 89.2305 2 91.7245 2C92.9228 2 94.1212 2.09251 95.3197 2.27752C96.5181 2.46253 97.6679 2.75547 98.7691 3.15635C99.9027 3.52638 100.955 4.00433 101.927 4.59023C102.899 5.14526 103.757 5.79279 104.502 6.53283L104.696 11.4361ZM155.956 33.4987C155.794 33.4705 155.519 33.4397 155.13 33.4065C154.774 33.4065 154.385 33.3924 153.964 33.3642C153.543 33.3642 153.138 33.3501 152.749 33.3219H149.835C149.446 33.3501 149.057 33.3808 148.669 33.4141C148.312 33.4423 148.037 33.473 147.843 33.5062L147.798 33.3209C148.122 33.1669 148.446 32.9664 148.77 32.7193C149.094 32.4729 149.272 32.0103 149.304 31.3318C149.334 30.5917 149.349 29.8209 149.349 29.0191C149.378 28.2174 149.393 27.3077 149.393 26.2902V22.8212V18.1497V13.4782V9.96295C149.393 8.94539 149.378 8.05116 149.349 7.28026C149.349 6.47855 149.334 5.70767 149.304 4.96763C149.275 4.28923 149.097 3.82671 148.77 3.58005C148.446 3.30254 148.122 3.08677 147.798 2.93275L147.843 2.7475C148.037 2.80896 148.312 2.85521 148.669 2.88626C149.057 2.88626 149.446 2.90036 149.835 2.92856C150.256 2.95676 150.661 2.97087 151.049 2.97087H152.749C153.138 2.94266 153.543 2.92856 153.964 2.92856C154.385 2.90036 154.774 2.86963 155.13 2.83638C155.519 2.80818 155.794 2.77745 155.956 2.74419L156 2.92952C155.644 3.08351 155.304 3.29926 154.98 3.57678C154.688 3.82327 154.526 4.2858 154.494 4.96436C154.464 5.7044 154.432 6.47527 154.397 7.27699V29.0159C154.426 29.8176 154.459 30.5885 154.494 31.3285C154.523 32.0069 154.685 32.4694 154.98 32.7161C155.304 32.9626 155.644 33.1631 156 33.3176L155.956 33.4987Z" fill="white"/>
</g>
<defs>
<clipPath id="clip0_234_467">
<rect width="156" height="36.2854" fill="white"/>
</clipPath>
</defs>
</svg>
